<svg width="13" height="12" viewBox="0 0 13 12" fill="none" xmlns="http://www.w3.org/2000/svg">
<path d="M6.98181 1.4831C7.56367 1.0124 8.30269 0.751041 9.07004 0.750001C9.92246 0.752502 10.7339 1.08105 11.328 1.65562C11.9214 2.22961 12.2495 3.00134 12.2495 3.8H12.2494L12.2496 3.81234C12.2608 4.49212 12.0058 5.15555 11.5279 5.66905L11.5278 5.66901L11.5211 5.6764L6.48304 11.2364C6.48274 11.2366 6.48197 11.2371 6.48061 11.2377C6.47781 11.2389 6.47364 11.24 6.46864 11.24C6.45859 11.24 6.44858 11.2402 6.43862 11.2406C5.24067 9.92034 4.33205 8.92235 3.63436 8.15603C3.1823 7.65951 2.8188 7.26025 2.52252 6.93361C2.15037 6.52333 1.90003 6.24492 1.73245 6.05323C1.64867 5.9574 1.58925 5.88743 1.54736 5.83601C1.5266 5.81053 1.51181 5.79163 1.50151 5.77797C1.49202 5.76539 1.4883 5.75984 1.48829 5.75984L1.48844 5.76007C1.47363 5.73737 1.4576 5.7155 1.44042 5.69454C0.995399 5.15164 0.754237 4.48482 0.749982 3.80047C0.754289 3.22447 0.928088 2.65936 1.25413 2.17086C1.58114 1.68089 2.04868 1.2872 2.60488 1.03943C3.16127 0.79158 3.78103 0.701181 4.39078 0.780205C5.00048 0.859222 5.57139 1.10386 6.03733 1.48222C6.31241 1.7056 6.70631 1.70596 6.98181 1.4831Z" stroke="#D22856" stroke-width="1.5" stroke-linejoin="round"/>
</svg>
