<svg width="13" height="12" fill="none" xmlns="http://www.w3.org/2000/svg"><path d="M6.982 1.483A3.33 3.33 0 019.07.75a3.263 3.263 0 012.258.906c.593.574.921 1.345.921 2.144h0v.012a2.66 2.66 0 01-.721 1.857h0l-.007.007-5.038 5.56-.002.002a.748.748 0 00-.042.003 2120.28 2120.28 0 00-2.805-3.085 960.18 960.18 0 01-1.111-1.222 71.01 71.01 0 01-.79-.88 8.583 8.583 0 01-.231-.276l-.014-.018h0a.749.749 0 00-.048-.065A3.015 3.015 0 01.75 3.8a2.973 2.973 0 01.504-1.63c.327-.49.795-.883 1.35-1.13A3.34 3.34 0 014.392.78c.61.08 1.18.324 1.646.702a.75.75 0 00.945.001z" stroke="#D22856" stroke-width="1.5" stroke-linejoin="round"/></svg>